<svg width="27" height="28" viewBox="0 0 27 28" fill="none" xmlns="http://www.w3.org/2000/svg">
<path id="add" fill-rule="evenodd" clip-rule="evenodd" d="M9.46301 27.0162C2.89001 27.0162 0.0820312 24.2082 0.0820312 17.6352V10.3732C0.0820312 3.80019 2.89001 0.992188 9.46301 0.992188H16.725C23.298 0.992188 26.106 3.80019 26.106 10.3732V17.6352C26.106 24.2082 23.298 27.0162 16.725 27.0162H9.46301ZM1.89807 10.3732V17.6352C1.89807 23.2152 3.88306 25.1992 9.46301 25.1992H16.725C22.3049 25.1992 24.2899 23.2152 24.2899 17.6352V10.3732C24.2899 4.79317 22.3049 2.80817 16.725 2.80817H9.46301C3.88293 2.80818 1.90002 4.79417 1.90002 10.3742L1.89807 10.3732ZM12.187 18.8462V14.9122H8.25305C7.92163 14.9232 7.6106 14.7526 7.44165 14.4673C7.27271 14.182 7.27271 13.8273 7.44165 13.542C7.6106 13.2567 7.92163 13.0862 8.25293 13.0972H12.187V9.16316C12.1757 8.83156 12.3461 8.52019 12.6316 8.35103C12.917 8.18187 13.272 8.18187 13.5574 8.35103C13.8429 8.52017 14.0133 8.83156 14.002 9.16315V13.1012H17.9359C18.2673 13.0902 18.5784 13.2607 18.7473 13.546C18.9163 13.8313 18.9163 14.186 18.7473 14.4713C18.5784 14.7566 18.2673 14.9272 17.936 14.9162H14V18.8502C13.9833 19.3393 13.5819 19.7272 13.0925 19.7272C12.6031 19.7272 12.2018 19.3393 12.1851 18.8502L12.187 18.8462Z" fill="#809FB8"/>
</svg>
