<svg width="29" height="30" viewBox="0 0 29 30" fill="none" xmlns="http://www.w3.org/2000/svg">
<path id="analytics" fill-rule="evenodd" clip-rule="evenodd" d="M10.486 29.4419C3.18599 29.4419 0.0679932 26.3189 0.0679932 19.0089V10.9319C0.0679932 3.62192 3.18599 0.497925 10.486 0.497925H18.552C25.852 0.497925 28.97 3.62192 28.97 10.9319V19.0089C28.97 26.3189 25.852 29.4419 18.552 29.4419H10.486ZM2.08599 10.9319V19.0089C2.08599 25.2149 4.28599 27.4229 10.486 27.4229H18.552C24.752 27.4229 26.952 25.2139 26.952 19.0089V10.9319C26.952 4.72592 24.747 2.51791 18.552 2.51791H10.486C4.28799 2.52094 2.08399 4.72794 2.08399 10.9349L2.08599 10.9319ZM17.06 23.2529H6.88399C6.32816 23.2486 5.8788 22.7988 5.875 22.2429L5.87499 15.3499C5.87824 13.9475 7.01345 12.8109 8.41592 12.8059H10.956V9.24191C10.9592 7.83951 12.0944 6.70288 13.4969 6.69791H15.54C16.9425 6.70285 18.0777 7.83945 18.081 9.24191V15.1119H20.623C22.0261 15.1158 23.1622 16.2528 23.165 17.6559V22.2419C23.1655 22.5098 23.0594 22.7668 22.8701 22.9563C22.6808 23.1458 22.4239 23.2522 22.156 23.2519L17.06 23.2529ZM21.147 21.2329V17.6519C21.147 17.362 20.9119 17.127 20.622 17.127H18.081V21.2329H21.147ZM16.052 21.2329V16.1169C16.0521 16.066 16.0561 16.0152 16.064 15.9649L16.064 9.24191C16.064 8.95236 15.8295 8.71747 15.54 8.71692H13.5C13.2104 8.71747 12.976 8.95236 12.976 9.24191L12.976 13.6509C12.9854 13.7064 12.9901 13.7626 12.99 13.8189V21.2369L16.052 21.2329ZM7.89199 15.3629V21.2329H10.956V14.8419H8.41599C8.12759 14.8425 7.89363 15.0756 7.89199 15.364L7.89199 15.3629Z" fill="#809FB8"/>
</svg>
