<svg width="26" height="30" viewBox="0 0 26 30" fill="none" xmlns="http://www.w3.org/2000/svg">
<path id="archive" fill-rule="evenodd" clip-rule="evenodd" d="M20.274 28.747L13.811 25.123C13.3256 24.9088 12.7724 24.9088 12.287 25.123L5.823 28.747C4.72826 29.4775 3.32268 29.5541 2.155 28.947C1.06569 28.2015 0.456001 26.9322 0.555008 25.616L0.555004 6.76904C0.543911 3.3819 3.27492 0.624084 6.66199 0.602051H19.44C22.8268 0.624634 25.5575 3.38214 25.547 6.76904V25.618C25.646 26.9343 25.0363 28.2036 23.947 28.949C23.4825 29.2247 22.9512 29.3679 22.411 29.363C21.657 29.3486 20.92 29.1362 20.274 28.747H20.274ZM14.764 23.37L21.228 26.994C21.715 27.364 22.3607 27.4506 22.928 27.222C23.3927 26.8283 23.6267 26.2263 23.55 25.6221L23.55 6.76904C23.5539 4.48639 21.7147 2.62836 19.432 2.60913L6.659 2.60907C4.37593 2.62781 2.53609 4.48596 2.54 6.7691L2.54 25.618C2.34948 26.2305 2.60411 26.8937 3.15557 27.2213C3.70704 27.549 4.41125 27.4553 4.858 26.9951L11.322 23.371C12.403 22.818 13.684 22.818 14.765 23.371L14.764 23.37ZM9.055 11.97C8.7181 11.847 8.47236 11.5538 8.41035 11.2006C8.34833 10.8474 8.47946 10.4879 8.75434 10.2576C9.02923 10.0273 9.4061 9.96106 9.743 10.084C11.8779 10.8608 14.2181 10.8608 16.353 10.084C16.6011 9.99396 16.8748 10.0067 17.1134 10.1193C17.3521 10.232 17.5359 10.4352 17.624 10.684C17.7153 10.9337 17.7033 11.2096 17.5907 11.4506C17.4781 11.6915 17.2742 11.8777 17.024 11.9679C14.4505 12.9135 11.6246 12.9135 9.051 11.968L9.055 11.97Z" fill="#809FB8"/>
</svg>
