<svg width="27" height="30" viewBox="0 0 27 30" fill="none" xmlns="http://www.w3.org/2000/svg">
<path id="dahboard" fill-rule="evenodd" clip-rule="evenodd" d="M11.371 28.5999L3.53501 24.0809C1.94807 23.1583 0.969193 21.4635 0.963013 19.6279V10.6149C0.969158 8.77933 1.948 7.08453 3.53492 6.1619L11.371 1.64285C12.9616 0.720444 14.9244 0.720444 16.515 1.64285L24.351 6.16185C25.9379 7.08446 26.9168 8.77922 26.923 10.6149L26.923 19.6279C26.9169 21.4634 25.938 23.1582 24.3511 24.0808L16.515 28.5999C14.9222 29.514 12.9638 29.514 11.371 28.5999H11.371ZM12.36 3.35585L4.52401 7.87485C3.54592 8.44099 2.9429 9.48476 2.94101 10.6149V19.6279C2.9458 20.7574 3.548 21.8002 4.52401 22.3689L12.36 26.8878C13.3392 27.4548 14.5468 27.4548 15.526 26.8878L23.362 22.3689C24.3402 21.8024 24.9429 20.7582 24.944 19.6279V10.6149C24.9393 9.48584 24.3375 8.44351 23.3621 7.87488L15.526 3.35585C14.5457 2.79318 13.3403 2.79318 12.36 3.35585H12.36ZM9.00001 18.4418C8.64275 18.4418 8.31262 18.2513 8.13399 17.9418C7.95535 17.6324 7.95535 17.2513 8.13399 16.9418C8.31262 16.6324 8.64275 16.4418 9.00001 16.4418H19C19.3573 16.4418 19.6874 16.6324 19.866 16.9418C20.0447 17.2513 20.0447 17.6324 19.866 17.9418C19.6874 18.2513 19.3573 18.4418 19 18.4418H9.00001ZM9.00001 13.4418C8.64275 13.4418 8.31262 13.2513 8.13399 12.9418C7.95535 12.6324 7.95535 12.2513 8.13399 11.9418C8.31262 11.6324 8.64275 11.4418 9.00001 11.4418H19C19.3573 11.4418 19.6874 11.6324 19.866 11.9418C20.0447 12.2513 20.0447 12.6324 19.866 12.9418C19.6874 13.2513 19.3573 13.4418 19 13.4418H9.00001Z" fill="#809FB8"/>
</svg>
