<svg width="26" height="26" viewBox="0 0 26 26" fill="none" xmlns="http://www.w3.org/2000/svg">
<path id="icons-2" fill-rule="evenodd" clip-rule="evenodd" d="M25.9588 16.6757C26.0278 16.4434 26.0074 16.1937 25.9018 15.9757C25.7936 15.7545 25.6083 15.5807 25.3808 15.4867C25.1509 15.3912 24.8946 15.381 24.6578 15.4576C22.75 16.0865 20.701 16.1504 18.7578 15.6416C16.8247 15.1382 15.0818 14.0787 13.7448 12.5946C12.4243 11.129 11.5764 9.29944 11.3118 7.3446C11.0516 5.396 11.3892 3.41431 12.2798 1.66162C12.3889 1.44482 12.4128 1.19507 12.3468 0.96167C12.2782 0.725708 12.1252 0.523193 11.9168 0.392822C11.7058 0.260254 11.4541 0.20813 11.2078 0.24585C7.93283 0.736939 4.95855 2.43127 2.86578 4.99768C-1.42604 10.2634 -0.808872 17.9753 4.26578 22.4916C8.99746 26.7216 16.0396 27.0757 21.1718 23.3417C23.4443 21.6971 25.1239 19.3616 25.9598 16.6837L25.9588 16.6757ZM13.2638 23.9247C10.6193 23.922 8.05828 22.9984 6.02079 21.3126C4.01039 19.6514 2.6642 17.3228 2.22779 14.7516C1.80032 12.1898 2.3181 9.55994 3.68478 7.35144C5.07103 5.11792 7.20116 3.44531 9.69978 2.62854C9.36008 3.72986 9.18815 4.8761 9.18979 6.02856C9.20076 9.20728 10.4937 12.2471 12.7758 14.4597C15.5714 17.1682 19.4758 18.408 23.3218 17.8086C22.3813 19.6469 20.9474 21.1868 19.1808 22.2556C17.3958 23.3374 15.35 23.913 13.2628 23.9207L13.2638 23.9247Z" fill="#99B2C6"/>
</svg>
