<svg width="29" height="30" viewBox="0 0 29 30" fill="none" xmlns="http://www.w3.org/2000/svg">
<path id="inbox" fill-rule="evenodd" clip-rule="evenodd" d="M10.717 29.4689C3.51097 29.4689 0.431969 26.3889 0.431969 19.1789V16.6859C0.42281 16.6324 0.418129 16.5782 0.417969 16.5239C0.418175 16.4706 0.422859 16.4174 0.431969 16.3649V11.2139C0.431969 4.00491 3.51097 0.924927 10.717 0.924927H18.679C25.885 0.924927 28.964 4.00491 28.964 11.2139V19.1799C28.964 26.3899 25.885 29.4699 18.679 29.4699L10.717 29.4689ZM2.42297 19.1789C2.42297 25.2999 4.59897 27.4789 10.717 27.4789H18.679C24.797 27.4789 26.973 25.3009 26.973 19.1789V17.5199H22.966C22.3355 17.5123 21.757 17.8685 21.48 18.435L20.3 20.8129C19.6868 22.0539 18.4201 22.837 17.036 22.8309H12.35C10.9564 22.8703 9.67289 22.0771 9.08497 20.8129L7.89997 18.4359C7.62228 17.8697 7.04363 17.5136 6.41297 17.5209L2.42297 17.5209V19.1789ZM6.41697 15.5289C7.80149 15.5225 9.06863 16.3057 9.68197 17.5469L10.863 19.924C11.1218 20.507 11.7128 20.8707 12.35 20.8389L17.035 20.839C17.6655 20.8466 18.244 20.4904 18.521 19.9239L19.7 17.5419C20.3131 16.301 21.5798 15.5179 22.964 15.5239H26.972V11.2089C26.972 5.08893 24.796 2.90894 18.678 2.90894H10.717C4.59897 2.90894 2.42297 5.08594 2.42297 11.2089V15.5239L6.41697 15.5289ZM11.38 13.5419C10.8644 13.4957 10.4693 13.0636 10.4693 12.5459C10.4693 12.0283 10.8644 11.5962 11.38 11.5499H18.016C18.5316 11.5962 18.9266 12.0283 18.9266 12.5459C18.9266 13.0636 18.5316 13.4957 18.016 13.5419H11.38ZM12.495 9.55994C12.1181 9.59631 11.7531 9.41675 11.5519 9.09607C11.3506 8.77536 11.3478 8.36853 11.5445 8.04504C11.7411 7.72156 12.1037 7.5369 12.481 7.56793H16.9C17.4523 7.56793 17.9 8.01566 17.9 8.56793C17.9044 9.11505 17.4651 9.56244 16.918 9.56793L12.495 9.55994Z" fill="#809FB8"/>
</svg>
