<svg width="23" height="23" viewBox="0 0 23 23" fill="none" xmlns="http://www.w3.org/2000/svg">
<path id="info_icon" fill-rule="evenodd" clip-rule="evenodd" d="M0.939453 11.3993C0.939453 6.95859 3.6145 2.9552 7.71716 1.25589C11.8199 -0.44339 16.5422 0.496094 19.6821 3.63626C22.822 6.77643 23.7611 11.4988 22.0615 15.6014C20.3618 19.7039 16.3582 22.3786 11.9175 22.3783C5.85645 22.3728 0.944458 17.4604 0.939514 11.3993H0.939453ZM2.47144 11.3993C2.47137 15.2203 4.77319 18.6651 8.30341 20.1273C11.8336 21.5894 15.897 20.781 18.5988 18.0789C21.3005 15.3769 22.1085 11.3134 20.646 7.78339C19.1835 4.2533 15.7385 1.95187 11.9174 1.95227C6.70294 1.95892 2.4776 6.18475 2.4715 11.3993H2.47144ZM11.1524 15.4893V10.3793C11.1524 10.106 11.2982 9.85339 11.5349 9.71674C11.7716 9.58011 12.0632 9.58011 12.2999 9.71674C12.5366 9.85339 12.6824 10.106 12.6824 10.3793V15.4893C12.6824 15.7626 12.5366 16.0151 12.2999 16.1518C12.0632 16.2884 11.7716 16.2884 11.5349 16.1518C11.2982 16.0151 11.1524 15.7626 11.1524 15.4893ZM11.5294 8.25427C11.2723 8.1618 11.0698 7.95938 10.9774 7.70227C10.8681 7.45517 10.8681 7.17337 10.9774 6.92627C11.0268 6.80145 11.0994 6.6871 11.1914 6.58929C11.2913 6.49951 11.4055 6.42719 11.5294 6.37524C11.7766 6.26608 12.0582 6.26608 12.3054 6.37531C12.4289 6.42728 12.5428 6.4996 12.6424 6.58923C12.7344 6.68704 12.807 6.80142 12.8564 6.92627C12.9657 7.17337 12.9657 7.45517 12.8564 7.70227C12.7638 7.95932 12.5615 8.16171 12.3044 8.25427C12.0557 8.35596 11.777 8.35596 11.5284 8.25427H11.5294Z" fill="#809FB8"/>
</svg>
