<svg width="126" height="48" viewBox="0 0 126 48" fill="none" xmlns="http://www.w3.org/2000/svg">
<rect width="126" height="48" fill="white"/>
<path d="M21.8675 12.4513C21.8675 13.6622 21.608 14.6626 21.089 15.4523C20.57 16.2421 19.8442 16.8325 18.9116 17.2236C17.9789 17.6072 16.8959 17.799 15.6624 17.799H13.97V23H10.2695V7.3631H15.1885C17.3095 7.3631 18.953 7.7843 20.1188 8.62669C21.2846 9.46908 21.8675 10.744 21.8675 12.4513ZM18.0541 12.4626C18.0541 10.8229 17.114 10.0031 15.2336 10.0031H13.97V15.1139H15.4254C16.2528 15.1139 16.8959 14.9033 17.3547 14.4821C17.821 14.0534 18.0541 13.3802 18.0541 12.4626Z" fill="#0DC1D2"/>
<path d="M29.1637 10.6236C30.3972 10.6236 31.4464 10.8869 32.3114 11.4134C33.1763 11.9399 33.8382 12.6807 34.297 13.6359C34.7558 14.5836 34.9852 15.6968 34.9852 16.9754C34.9852 18.9761 34.4737 20.5443 33.4508 21.68C32.4279 22.8157 30.9989 23.3836 29.1637 23.3836C27.3284 23.3836 25.8994 22.8233 24.8765 21.7026C23.8536 20.5819 23.3421 19.0137 23.3421 16.998C23.3421 15.7269 23.5715 14.6137 24.0303 13.6585C24.4967 12.7033 25.1623 11.9587 26.0273 11.4246C26.8997 10.8906 27.9452 10.6236 29.1637 10.6236ZM29.1637 13.2523C28.4341 13.2523 27.8926 13.5532 27.539 14.1549C27.1931 14.7491 27.0201 15.6968 27.0201 16.998C27.0201 18.3217 27.1931 19.2807 27.539 19.8749C27.8926 20.4691 28.4341 20.7662 29.1637 20.7662C29.8932 20.7662 30.431 20.4691 30.777 19.8749C31.1305 19.2807 31.3073 18.3142 31.3073 16.9754C31.3073 15.6817 31.1305 14.7378 30.777 14.1436C30.431 13.5494 29.8932 13.2523 29.1637 13.2523Z" fill="#0DC1D2"/>
<path d="M43.7593 6.25746V19.2318C43.7593 19.7132 43.8947 20.0592 44.1655 20.2698C44.4438 20.4728 44.8236 20.5744 45.305 20.5744C45.6133 20.5744 45.9104 20.5405 46.1963 20.4728C46.4821 20.3976 46.7491 20.3111 46.9973 20.2134L47.8547 22.5939C47.4486 22.8045 46.9597 22.9887 46.3881 23.1467C45.8164 23.3046 45.1508 23.3836 44.3911 23.3836C42.947 23.3836 41.8865 22.9699 41.2096 22.1426C40.5327 21.3077 40.1942 20.1908 40.1942 18.7918V8.69438H36.6629V6.25746H43.7593Z" fill="#0DC1D2"/>
<path d="M62.3714 11.0185L58.3776 23C57.8511 24.587 57.0538 25.7942 55.9858 26.6216C54.9253 27.4489 53.4849 27.9152 51.6647 28.0205L51.2586 25.5046C52.0483 25.4069 52.6839 25.2602 53.1653 25.0646C53.6541 24.8691 54.0453 24.6021 54.3386 24.2636C54.6394 23.9327 54.8989 23.5115 55.1171 23H53.8986L50.0965 11.0185H53.8647L56.1888 20.721L58.716 11.0185H62.3714Z" fill="#0DC1D2"/>
<path d="M75.365 22.3005C74.8987 22.6014 74.3346 22.8571 73.6727 23.0677C73.0108 23.2783 72.2662 23.3836 71.4389 23.3836C69.8744 23.3836 68.7124 22.985 67.9527 22.1877C67.1931 21.3829 66.8132 20.2923 66.8132 18.9159V13.478H64.2973V11.0185H66.8132V8.42361L70.3784 7.99489V11.0185H74.2368L73.8871 13.478H70.3784V18.9159C70.3784 19.5101 70.5137 19.9351 70.7845 20.1908C71.0553 20.4465 71.4878 20.5744 72.082 20.5744C72.5032 20.5744 72.8867 20.5255 73.2327 20.4277C73.5862 20.3224 73.9021 20.1908 74.1804 20.0328L75.365 22.3005Z" fill="#0DC1D2"/>
<path d="M81.2058 18.0472C81.3262 19.025 81.6458 19.7282 82.1648 20.1569C82.6838 20.5781 83.3231 20.7887 84.0827 20.7887C84.6318 20.7887 85.1621 20.6985 85.6735 20.518C86.185 20.3375 86.6776 20.0968 87.1515 19.7959L88.5843 21.7364C88.0202 22.2178 87.3357 22.6127 86.531 22.921C85.7337 23.2294 84.8236 23.3836 83.8007 23.3836C82.4318 23.3836 81.2848 23.1128 80.3597 22.5713C79.4345 22.0222 78.7388 21.2701 78.2725 20.3149C77.8062 19.3597 77.573 18.2616 77.573 17.0205C77.573 15.8397 77.7986 14.7679 78.2499 13.8052C78.7012 12.8349 79.3593 12.064 80.2243 11.4923C81.0968 10.9132 82.161 10.6236 83.4171 10.6236C84.5604 10.6236 85.5494 10.8681 86.3843 11.3569C87.2267 11.8458 87.8773 12.5491 88.3361 13.4667C88.8024 14.3843 89.0356 15.4862 89.0356 16.7723C89.0356 16.9754 89.0281 17.1935 89.013 17.4267C89.0055 17.6599 88.9904 17.8667 88.9679 18.0472H81.2058ZM83.4171 13.0154C82.7778 13.0154 82.2626 13.2448 81.8715 13.7036C81.4804 14.1624 81.2434 14.8957 81.1607 15.9036H85.5607C85.5532 15.0311 85.3839 14.3316 85.053 13.8052C84.7221 13.2787 84.1768 13.0154 83.4171 13.0154Z" fill="#0DC1D2"/>
<path d="M98.0015 20.5744C98.4904 20.5744 98.9492 20.4804 99.3779 20.2923C99.8141 20.0968 100.247 19.8486 100.675 19.5477L102.266 21.8041C101.74 22.2554 101.097 22.6315 100.337 22.9323C99.5847 23.2332 98.7423 23.3836 97.8097 23.3836C96.5235 23.3836 95.4179 23.1204 94.4928 22.5939C93.5676 22.0599 92.8569 21.3228 92.3605 20.3826C91.8641 19.4349 91.6159 18.3368 91.6159 17.0882C91.6159 15.8397 91.8678 14.7303 92.3717 13.76C92.8832 12.7822 93.6053 12.0151 94.5379 11.4585C95.4781 10.9019 96.5912 10.6236 97.8774 10.6236C98.7875 10.6236 99.596 10.7515 100.303 11.0072C101.018 11.2554 101.672 11.6277 102.266 12.1241L100.72 14.2677C100.314 13.9819 99.8856 13.76 99.4343 13.6021C98.983 13.4441 98.5129 13.3652 98.0241 13.3652C97.2193 13.3652 96.5687 13.651 96.0723 14.2226C95.5834 14.7867 95.3389 15.7419 95.3389 17.0882C95.3389 17.9682 95.4555 18.664 95.6887 19.1754C95.9218 19.6793 96.2377 20.0404 96.6364 20.2585C97.0425 20.4691 97.4976 20.5744 98.0015 20.5744Z" fill="#0DC1D2"/>
<path d="M108.75 5.90771V12.2031C109.75 11.1501 110.924 10.6236 112.27 10.6236C113.338 10.6236 114.154 10.9357 114.718 11.56C115.282 12.1843 115.564 13.0643 115.564 14.2V23H111.999V15.1928C111.999 14.4708 111.916 13.9669 111.751 13.681C111.593 13.3952 111.292 13.2523 110.848 13.2523C110.472 13.2523 110.111 13.384 109.765 13.6472C109.427 13.9029 109.088 14.2564 108.75 14.7077V23H105.185V6.25746L108.75 5.90771Z" fill="#0DC1D2"/>
<path fill-rule="evenodd" clip-rule="evenodd" d="M27.7082 30.4732C28.5514 29.7597 29.8133 29.8649 30.5268 30.7081C35.4651 36.5442 45.7323 39.75 56.5 39.75C67.2678 39.75 77.535 36.5442 82.4733 30.7081C83.1868 29.8649 84.4487 29.7597 85.2919 30.4732C86.1351 31.1867 86.2403 32.4487 85.5268 33.2919C79.4651 40.4557 67.7323 43.75 56.5 43.75C45.2678 43.75 33.535 40.4557 27.4733 33.2919C26.7598 32.4487 26.8649 31.1867 27.7082 30.4732Z" fill="#0DC1D2"/>
</svg>
