<svg width="28" height="30" viewBox="0 0 28 30" fill="none" xmlns="http://www.w3.org/2000/svg">
<path id="market" fill-rule="evenodd" clip-rule="evenodd" d="M17.39 29.4418H10.549C4.04903 29.4418 1.28703 26.6008 1.28703 19.9638V13.9198C1.28693 13.8355 1.29734 13.7515 1.31802 13.6698C0.584141 12.5809 0.260277 11.267 0.404018 9.96179L0.759022 6.26178C1.31202 2.15479 3.11402 0.499756 6.98202 0.499756H21.153C25.021 0.499756 26.824 2.15479 27.363 6.22076L27.732 9.96277C27.8729 11.2453 27.5628 12.5369 26.855 13.6157C26.8862 13.7144 26.9021 13.8173 26.902 13.9208V19.9648C26.915 26.6018 24.139 29.4428 17.653 29.4428L17.39 29.4418ZM16.404 27.4218V25.0658C16.404 23.3658 15.76 22.7108 14.104 22.7108C12.448 22.7108 11.804 23.3708 11.804 25.0658V27.4218H16.404ZM3.26003 19.9678C3.26003 25.2198 4.99503 27.2388 9.82502 27.4138V25.0698C9.82502 22.2428 11.338 20.6948 14.101 20.6948C16.864 20.6948 18.377 22.2428 18.377 25.0698V27.4128C23.197 27.2349 24.929 25.2128 24.929 19.9678V15.3679C22.6235 16.5881 19.7727 15.9458 18.213 13.8549C17.2903 15.2143 15.7426 16.0146 14.1 15.9819C12.6862 16.0006 11.3347 15.4008 10.4 14.3398C10.2455 14.164 10.1035 13.9775 9.97503 13.7819C8.44355 15.9075 5.58769 16.5933 3.25803 15.3948L3.26003 19.9678ZM22.403 13.9678C23.3681 13.9831 24.2931 13.5823 24.942 12.8679C25.5812 12.1247 25.8816 11.1487 25.771 10.1749L25.403 6.47485C24.995 3.43286 24.035 2.52985 21.153 2.52985H18.287L19.06 10.4188C19.0828 10.6514 19.0911 10.8853 19.085 11.1188C19.4008 12.7187 20.7708 13.8945 22.4 13.9638L22.403 13.9678ZM2.72003 6.49182L2.36503 10.1668C2.24883 11.1412 2.54994 12.1194 3.19403 12.8598C3.84019 13.5787 4.7676 13.9803 5.73403 13.9598C7.46552 13.8909 8.88885 12.5712 9.08803 10.8498L9.90403 2.51678H6.98203C4.10003 2.51984 3.14103 3.40985 2.72003 6.49182ZM11.14 10.6108C11.0361 11.4677 11.2991 12.3284 11.864 12.9808C12.45 13.5873 13.2572 13.9297 14.1005 13.9297C14.9439 13.9297 15.751 13.5873 16.337 12.9808C16.7966 12.4493 17.0581 11.7751 17.077 11.0728L17.077 11.0558L16.244 2.51978H11.929L11.14 10.6108Z" fill="#809FB8"/>
</svg>
