<svg width="27" height="30" viewBox="0 0 27 30" fill="none" xmlns="http://www.w3.org/2000/svg">
<path id="newsfeed" fill-rule="evenodd" clip-rule="evenodd" d="M8.0897 29.452C3.1737 29.452 0.345703 26.625 0.345703 21.711V8.25198C0.345703 3.33798 3.1747 0.510986 8.0897 0.510986H18.8657C23.7827 0.510986 26.6097 3.33798 26.6097 8.25198V21.714C26.6097 26.628 23.7817 29.455 18.8657 29.455L8.0897 29.452ZM2.3657 8.25198V21.714C2.3657 25.564 4.2377 27.435 8.0897 27.435H18.8657C22.7177 27.435 24.5907 25.564 24.5907 21.714V8.25198C24.5907 4.51599 22.8267 2.64297 19.2027 2.53598V12.103C19.2091 12.7721 18.8099 13.3784 18.1927 13.637C17.5787 13.9051 16.8642 13.7834 16.3737 13.327L13.4737 10.676L10.5737 13.341C10.0843 13.796 9.37212 13.9184 8.75891 13.6529C8.14571 13.3874 7.74768 12.7842 7.74469 12.116V2.53598C4.1287 2.64398 2.3657 4.51599 2.3657 8.25198ZM14.6227 8.97897L17.1817 11.334V2.534H9.7737V11.334L12.3337 8.97897C12.9826 8.38773 13.9749 8.38773 14.6237 8.97897H14.6227ZM9.4367 24.07C9.07508 24.0712 8.74041 23.8789 8.55924 23.5659C8.37808 23.253 8.37808 22.867 8.55924 22.554C8.7404 22.241 9.07507 22.0488 9.4367 22.05L20.8857 22.05C21.2473 22.0488 21.582 22.241 21.7632 22.554C21.9443 22.867 21.9443 23.2529 21.7632 23.5659C21.582 23.8789 21.2473 24.0712 20.8857 24.07H9.4367ZM15.1607 18.685C14.7991 18.6862 14.4644 18.4939 14.2832 18.1809C14.1021 17.868 14.1021 17.482 14.2832 17.169C14.4644 16.856 14.7991 16.6638 15.1607 16.6649L20.8857 16.665C21.2473 16.6638 21.582 16.856 21.7632 17.169C21.9443 17.482 21.9443 17.8679 21.7632 18.1809C21.582 18.4939 21.2473 18.6862 20.8857 18.685H15.1607Z" fill="#809FB8"/>
</svg>
