<svg width="29" height="29" viewBox="0 0 29 29" fill="none" xmlns="http://www.w3.org/2000/svg">
<path id="profile" fill-rule="evenodd" clip-rule="evenodd" d="M10.486 28.198C8.96883 28.2324 7.45424 28.055 5.98603 27.671H5.98603C1.94603 26.571 0.0640259 23.565 0.0640259 18.2V10.459C0.0640259 3.45001 3.18003 0.458984 10.482 0.458984H18.548C25.848 0.458984 28.966 3.44897 28.966 10.459V18.2C28.966 23.542 27.099 26.549 23.091 27.657L23.052 27.668C21.5839 28.0529 20.0693 28.2309 18.552 28.197L10.486 28.198ZM7.42103 26.017C8.43283 26.194 9.45893 26.2764 10.486 26.2629H18.552C19.5791 26.2764 20.6052 26.194 21.617 26.017C20.901 23.545 17.966 21.709 14.517 21.709C11.8876 21.5842 9.37799 22.8173 7.87003 24.975L7.84903 25.011C7.6662 25.3278 7.52248 25.6656 7.42102 26.017L7.42103 26.017ZM23.542 25.442C25.921 24.385 26.954 22.151 26.954 18.201V10.46C26.954 4.50696 24.754 2.39594 18.554 2.39594H10.486C4.28603 2.39594 2.08603 4.50592 2.08603 10.46V18.201C2.08603 22.15 3.11903 24.385 5.49603 25.441C5.76965 24.5649 6.21953 23.7539 6.81802 23.058L6.83302 23.041L6.84202 23.03C8.74385 20.9608 11.4246 19.7816 14.235 19.7779L14.778 19.778C17.4594 19.7827 20.0307 20.8453 21.933 22.735L21.944 22.7459L21.954 22.7559L21.978 22.7819C22.6583 23.4998 23.1758 24.3559 23.495 25.2919C23.511 25.342 23.527 25.392 23.542 25.442ZM9.90003 15.898C9.12487 14.9342 8.70158 13.7349 8.70003 12.498C8.82747 9.46674 11.2562 7.0387 14.2875 6.91217C17.3188 6.78571 19.9415 9.00293 20.321 12.013C20.3357 12.1724 20.343 12.3337 20.343 12.497C20.343 12.7949 20.3186 13.0912 20.2699 13.3841C19.7572 16.1451 17.33 18.1353 14.522 18.097C12.7271 18.1052 11.026 17.2959 9.90003 15.898ZM14.521 16.161C15.1097 16.1614 15.6908 16.0287 16.221 15.773C17.0924 15.3561 17.7684 14.6177 18.107 13.713C18.2495 13.3234 18.3223 12.9117 18.322 12.4969C18.3153 11.3323 17.7456 10.2429 16.793 9.573C15.256 8.47821 13.1569 8.63458 11.799 9.94507C11.1078 10.6141 10.7161 11.5341 10.713 12.496C10.7276 13.9349 11.5831 15.2321 12.9 15.8121C13.4087 16.0424 13.9607 16.161 14.519 16.16L14.521 16.161Z" fill="#809FB8"/>
</svg>
