<svg width="29" height="28" viewBox="0 0 29 28" fill="none" xmlns="http://www.w3.org/2000/svg">
<path id="settings" fill-rule="evenodd" clip-rule="evenodd" d="M8.59997 26.7639L6.28997 25.4478C5.47346 24.9881 4.87478 24.2209 4.62738 23.3172C4.37998 22.4134 4.50442 21.4482 4.97297 20.6368C5.34305 20.1611 5.4445 19.5294 5.24197 18.9617C4.84591 18.5012 4.24424 18.2714 3.64198 18.3508C1.68731 18.358 0.0952072 16.7824 0.0819702 14.8278V12.4888C0.0952339 10.5342 1.68734 8.95868 3.64201 8.96588C4.24426 9.0451 4.84591 8.81537 5.24197 8.3548C5.45158 7.78778 5.34956 7.15253 4.97297 6.67975C4.50533 5.87152 4.38004 4.90997 4.62497 4.00885C4.86282 3.09729 5.46484 2.32355 6.28997 1.86884L8.61397 0.552856C10.1597 -0.332458 12.1296 0.181396 13.046 1.70886L13.207 1.97485C14 3.33087 15.087 3.33087 15.88 1.97485L16.028 1.72284C16.941 0.181885 18.926 -0.334228 20.474 0.566833L22.784 1.88281C23.6009 2.3421 24.1999 3.10931 24.4473 4.01318C24.6948 4.91711 24.57 5.88251 24.101 6.69379C23.7309 7.16949 23.6294 7.80133 23.832 8.36884C24.228 8.82928 24.8297 9.05902 25.432 8.97968C27.3867 8.97235 28.9788 10.5479 28.992 12.5026V14.8417C28.9782 16.7962 27.3864 18.3714 25.432 18.3647C24.8297 18.2853 24.228 18.5151 23.832 18.9756C23.6221 19.5425 23.7241 20.1779 24.101 20.6507C24.5701 21.462 24.6948 22.4273 24.4474 23.3312C24.1999 24.2352 23.6009 25.0024 22.784 25.4617L20.46 26.7778C19.9629 27.0546 19.4039 27.2012 18.835 27.2038C18.5498 27.2011 18.2659 27.1652 17.989 27.0969C17.1645 26.8793 16.4566 26.3506 16.014 25.6218L15.853 25.3558C15.061 23.9998 13.973 23.9998 13.18 25.3558L13.032 25.6088C12.5983 26.3483 11.8873 26.884 11.057 27.0969C10.7814 27.171 10.4973 27.2087 10.212 27.2089C9.64433 27.2087 9.08733 27.0549 8.59997 26.7639H8.59997ZM9.62097 2.26385L7.29697 3.59283C6.94135 3.79468 6.68054 4.12964 6.57197 4.52386C6.46428 4.91345 6.5176 5.32996 6.71997 5.67987C7.47062 6.76239 7.57328 8.16754 6.98797 9.34784C6.24436 10.447 4.9668 11.0609 3.64397 10.9548C3.23583 10.9507 2.84303 11.1102 2.55303 11.3973C2.26303 11.6845 2.0999 12.0757 2.09997 12.4839V14.8229C2.1044 15.6712 2.79568 16.3553 3.64397 16.3509C4.96714 16.2454 6.24469 16.8602 6.98797 17.9599C7.57306 19.1402 7.4704 20.5452 6.71997 21.6279C6.51683 21.9775 6.46347 22.3943 6.57197 22.7839C6.67917 23.1751 6.93457 23.5091 7.28397 23.715L9.60798 25.0309C9.8862 25.199 10.2207 25.247 10.535 25.164C10.8548 25.0804 11.1295 24.8755 11.301 24.593L11.449 24.3399C11.9621 23.0937 13.1767 22.2802 14.5245 22.2802C15.8723 22.2802 17.0868 23.0937 17.6 24.3399L17.748 24.593C18.0944 25.1644 18.8314 25.3581 19.414 25.0309L21.738 23.702C22.0935 23.5005 22.3544 23.166 22.463 22.7719C22.5703 22.3823 22.517 21.9659 22.315 21.6159C21.5636 20.5336 21.4605 19.1282 22.046 17.9479C22.7893 16.8484 24.067 16.2341 25.39 16.3399C25.7983 16.3442 26.1913 16.185 26.4815 15.8978C26.7717 15.6105 26.935 15.2192 26.935 14.8109V12.4719C26.93 11.6235 26.2384 10.9395 25.39 10.9439C24.067 11.0497 22.7894 10.4354 22.046 9.33588C21.4605 8.15558 21.5636 6.75018 22.315 5.66791C22.5172 5.31757 22.5705 4.90082 22.463 4.51093C22.3558 4.11975 22.1004 3.78577 21.751 3.5799L19.427 2.26392C18.838 1.92108 18.0828 2.11646 17.734 2.7019L17.586 2.9549C17.0731 4.20178 15.8582 5.01575 14.51 5.01575C13.1617 5.01575 11.9468 4.20178 11.434 2.9549L11.286 2.6889C11.06 2.32196 10.6589 2.09943 10.228 2.10193C10.0143 2.10284 9.80456 2.1601 9.61997 2.26782L9.62097 2.26385ZM9.48697 13.6548C9.46548 11.613 10.679 9.76007 12.5594 8.96368C14.4398 8.1673 16.6149 8.58502 18.0665 10.0214C19.5181 11.4577 19.9588 13.6282 19.1824 15.517C18.406 17.4057 16.5661 18.6387 14.524 18.6389C11.7585 18.6528 9.50415 16.4244 9.48597 13.6589L9.48697 13.6548ZM11.502 13.6548C11.4894 14.8798 12.2177 15.9913 13.3458 16.4688C14.474 16.9464 15.7789 16.6955 16.6496 15.8337C17.5204 14.972 17.7847 13.6697 17.3188 12.5367C16.8529 11.4036 15.7491 10.6639 14.524 10.6639C12.8622 10.6566 11.5088 11.997 11.5 13.6588L11.502 13.6548Z" fill="#809FB8"/>
</svg>
