<svg width="22" height="22" viewBox="0 0 22 22" fill="none" xmlns="http://www.w3.org/2000/svg">
<g id="svg">
<path id="Shape" fill-rule="evenodd" clip-rule="evenodd" d="M10.2495 20.5C4.59951 20.5 -0.000488281 15.9 -0.000488281 10.25C-0.000488281 4.6 4.59951 0 10.2495 0C15.8995 0 20.4995 4.6 20.4995 10.25C20.4995 15.9 15.8995 20.5 10.2495 20.5ZM10.2495 1.5C5.41951 1.5 1.49951 5.43 1.49951 10.25C1.49951 15.07 5.41951 19 10.2495 19C15.0795 19 18.9995 15.07 18.9995 10.25C18.9995 5.43 15.0795 1.5 10.2495 1.5Z" fill="#809FB8"/>
<path id="Shape_2" d="M20.5497 21.4999C20.3597 21.4999 20.1697 21.4299 20.0197 21.2799L17.0197 18.2799C16.7297 17.9899 16.7297 17.5099 17.0197 17.2199C17.3097 16.9299 17.7897 16.9299 18.0797 17.2199L21.0797 20.2199C21.3697 20.5099 21.3697 20.9899 21.0797 21.2799C20.9297 21.4299 20.7397 21.4999 20.5497 21.4999Z" fill="#809FB8"/>
</g>
</svg>
