<svg width="29" height="26" viewBox="0 0 29 26" fill="none" xmlns="http://www.w3.org/2000/svg">
<path id="wallet" fill-rule="evenodd" clip-rule="evenodd" d="M8.40501 25.0708C3.97301 25.0708 0.997009 21.9518 0.997009 17.3068V7.85483C0.997009 3.69482 3.44501 0.684814 7.24601 0.184814C7.62936 0.123718 8.01682 0.09198 8.40501 0.0898438L20 0.0898132C20.3752 0.0868225 20.75 0.113586 21.121 0.16983C24.921 0.629791 27.407 3.65479 27.407 7.85379V9.04379C28.2081 9.45767 28.7069 10.2882 28.696 11.1898V13.9718C28.7053 14.8745 28.2072 15.706 27.407 16.1238L27.407 17.2928C27.407 21.9508 24.432 25.0708 19.999 25.0708L8.40501 25.0708ZM7.50501 2.18283C4.67101 2.56082 2.93201 4.72183 2.93201 7.85483V17.3068C2.93201 20.7908 5.08301 23.0458 8.40701 23.0458H20C23.324 23.0458 25.476 20.7908 25.476 17.3068V16.3618H23.917C22.3942 16.3426 21.0287 15.4195 20.4433 14.0135C19.8579 12.6075 20.1648 10.9881 21.224 9.89383C21.8749 9.19107 22.7911 8.79413 23.749 8.79984H25.475V7.85483C25.475 4.69482 23.71 2.52081 20.85 2.16983C20.5686 2.12607 20.2837 2.108 19.999 2.11584H8.40501C8.10216 2.1174 7.79979 2.1398 7.50002 2.18286L7.50501 2.18283ZM22.105 12.7158C22.2103 13.6371 22.9938 14.3304 23.921 14.3228H26.446C26.4713 14.3228 26.4967 14.3228 26.522 14.3228C26.672 14.2711 26.7715 14.1284 26.768 13.9698V11.1878C26.768 10.9881 26.6076 10.8255 26.408 10.8228H23.762C23.3222 10.8171 22.9007 10.999 22.603 11.3228L22.59 11.3358L22.561 11.3658C22.442 11.4942 22.3426 11.6394 22.266 11.7968C22.1312 12.0833 22.0739 12.4002 22.1 12.7158H22.105ZM8.40501 9.54282C7.86303 9.51874 7.43602 9.07233 7.43602 8.52982C7.43602 7.9873 7.86303 7.54089 8.40501 7.51682H16.135C16.677 7.54089 17.104 7.9873 17.104 8.52982C17.104 9.07233 16.677 9.51874 16.135 9.54282H8.40501Z" fill="#809FB8"/>
</svg>
