<?xml version="1.0" encoding="utf-8"?>
<!-- Generator: Adobe Illustrator 16.0.2, SVG Export Plug-In . SVG Version: 6.00 Build 0)  -->
<!DOCTYPE svg PUBLIC "-//W3C//DTD SVG 1.1//EN" "http://www.w3.org/Graphics/SVG/1.1/DTD/svg11.dtd">
<svg class="img-fluid" id="outputsvg" xmlns="http://www.w3.org/2000/svg" style="transform: matrix(1.1, 0, 0, 1.1, 2.5, 2.5); transform-origin: 50% 50%; cursor: move; max-height: none; transition: none 0s ease 0s;" width="500" height="264" viewBox="0 0 34810 19110"><g id="l367YUizyyivrCvRQAZeF9n" fill="rgb(255,255,254)" style="transform: none;"><g style="transform: none;"><path id="pdI3vttEB" d="M0 9555 l0 -9555 17405 0 17405 0 0 9555 0 9555 -17405 0 -17405 0 0 -9555z m18210 7041 c135 -9 353 -23 485 -31 460 -29 699 -46 705 -50 3 -2 116 -13 250 -24 659 -57 1835 -203 2339 -291 717 -125 948 -173 1835 -386 1295 -310 1174 -277 1800 -476 471 -149 860 -287 1236 -438 234 -93 825 -349 995 -430 272 -130 846 -437 1016 -542 57 -36 302 -161 544 -278 378 -182 930 -468 921 -477 -1 -2 -43 13 -92 33 -170 69 -870 316 -1104 389 -505 158 -1064 312 -1640 451 -707 172 -869 209 -1141 263 -395 78 -1527 263 -1903 311 -287 37 -1111 125 -1306 140 -80 6 -199 17 -265 25 -66 8 -187 17 -270 20 -82 4 -208 13 -280 21 -71 8 -247 19 -390 25 -143 5 -350 14 -460 19 -714 34 -1718 44 -2325 22 -611 -21 -1052 -41 -1180 -52 -69 -5 -240 -17 -380 -25 -973 -58 -2380 -244 -3410 -451 -1194 -240 -2285 -551 -3235 -922 -575 -225 -1021 -441 -1610 -779 -520 -299 -957 -634 -1346 -1031 -285 -291 -474 -553 -638 -887 -200 -405 -275 -713 -274 -1125 0 -230 13 -346 59 -540 99 -420 333 -879 648 -1270 108 -135 322 -373 407 -455 219 -210 536 -469 767 -629 78 -54 142 -100 142 -102 0 -7 -89 35 -345 161 -302 149 -551 284 -861 465 -226 133 -226 133 -389 205 -149 67 -826 408 -950 480 -744 428 -1271 809 -1709 1235 -507 494 -803 925 -990 1443 -101 279 -140 503 -139 807 0 229 14 332 77 561 153 556 493 1086 984 1532 347 317 618 523 1022 777 557 352 1395 749 2155 1021 686 246 1594 506 2350 673 686 151 1657 319 2375 411 538 68 1469 152 1950 175 124 6 275 16 335 22 195 19 715 26 1865 23 900 -3 1174 -6 1370 -19z m8010 -3797 c299 -150 579 -307 809 -452 202 -129 203 -129 326 -185 933 -423 1871 -1021 2483 -1584 263 -241 389 -372 541 -562 239 -300 311 -410 473 -726 145 -284 255 -666 273 -950 14 -222 -24 -564 -86 -785 -69 -244 -214 -544 -390 -806 -158 -235 -506 -610 -789 -849 -879 -741 -2172 -1367 -3843 -1859 -701 -207 -936 -261 -1993 -460 -867 -164 -1092 -200 -1684 -271 -184 -22 -402 -49 -485 -59 -82 -11 -271 -29 -420 -41 -148 -11 -344 -27 -435 -35 -91 -8 -266 -19 -390 -25 -124 -6 -270 -16 -325 -21 -203 -19 -763 -29 -1650 -29 -817 0 -970 2 -1490 25 -319 14 -704 34 -855 45 -151 11 -338 25 -415 30 -77 6 -225 19 -330 30 -104 10 -221 22 -260 25 -193 15 -505 48 -758 80 -451 57 -1461 210 -1852 281 -301 54 -1120 225 -1460 304 -164 38 -787 200 -985 256 -107 31 -249 71 -315 89 -296 82 -971 306 -1373 456 -908 338 -1565 643 -2334 1087 -240 138 -483 272 -540 298 -303 136 -1162 593 -1146 610 3 2 69 -24 149 -57 423 -178 865 -328 1769 -599 801 -240 1160 -338 1550 -423 650 -142 1421 -292 1835 -357 195 -30 1015 -144 1300 -179 466 -59 1159 -126 1456 -141 107 -5 229 -14 270 -20 41 -5 200 -14 353 -20 154 -6 417 -19 585 -30 377 -23 1688 -35 2231 -21 562 16 1120 39 1305 55 94 8 222 18 285 21 779 40 2322 240 3214 416 747 147 1890 445 2531 661 647 217 1462 566 1948 834 141 78 556 327 702 422 304 196 743 564 922 772 281 327 351 417 477 622 567 923 510 1979 -158 2932 -207 295 -496 621 -761 858 -139 124 -450 380 -590 485 l-30 23 40 -16 c22 -9 164 -78 315 -155z m-4531 -1002 l81 -123 0 -80 c0 -49 -5 -85 -12 -92 -16 -16 -149 -16 -172 1 -14 10 -16 25 -14 82 l3 70 60 5 60 5 3 37 c2 29 -6 53 -36 105 -90 155 -80 151 27 -10z m-12305 -507 l223 -405 -45 -3 c-24 -2 -50 -1 -57 2 -7 2 -85 142 -175 310 l-162 306 -38 0 -38 0 -173 -310 -174 -310 -67 0 c-38 0 -68 2 -68 3 0 3 311 544 431 749 40 69 41 69 80 66 l40 -3 223 -405z m585 310 l52 -100 304 0 304 0 19 28 c10 15 36 60 57 100 l39 72 69 0 68 0 -25 -42 c-13 -24 -119 -207 -234 -408 l-210 -365 -72 0 -73 0 -229 403 c-125 222 -228 406 -228 408 0 2 24 4 53 4 l53 0 53 -100z m1409 -205 l-4 -305 29 0 c21 0 47 16 95 59 37 32 199 169 360 305 274 230 296 246 333 246 l39 0 0 -410 0 -410 -67 0 -66 0 6 300 6 300 -31 0 c-22 0 -42 -10 -63 -29 -16 -16 -176 -151 -354 -300 -315 -263 -326 -271 -368 -271 l-43 0 0 403 c0 222 3 407 7 410 3 4 33 7 66 7 l60 0 -5 -305z m2620 -104 c122 -222 222 -406 222 -408 0 -2 -24 -3 -54 -3 l-54 0 -168 316 -167 315 -34 -3 c-32 -3 -37 -9 -207 -313 l-174 -310 -71 -3 -71 -3 123 213 c68 117 175 302 238 411 l114 198 40 -3 40 -3 223 -404z m702 -1 l0 -410 -70 0 -70 0 0 410 0 410 70 0 70 0 0 -410z m1360 355 l0 -55 -350 0 -350 0 0 -140 0 -140 200 0 200 0 0 -45 0 -45 -200 0 -200 0 0 -125 0 -125 345 0 345 0 0 -45 0 -45 -420 0 -420 0 0 410 0 410 425 0 425 0 0 -55z m788 -307 l2 -358 200 0 200 0 0 -50 0 -50 -475 0 -475 0 0 50 0 50 200 0 200 0 0 360 0 361 73 -3 72 -3 3 -357z m2176 338 c51 -26 75 -79 76 -167 l0 -66 -57 -12 c-88 -17 -83 -21 -83 74 l0 85 -305 0 -305 0 0 -305 0 -305 305 0 305 0 0 76 0 76 48 -7 c95 -13 92 -11 92 -74 0 -65 -22 -115 -63 -145 -28 -20 -40 -21 -380 -21 -396 0 -398 0 -433 72 -17 35 -19 64 -19 333 0 323 2 338 62 377 42 28 92 31 413 30 279 -2 308 -4 344 -21z m1485 -1 c19 -11 43 -33 55 -48 20 -27 21 -39 21 -335 0 -353 -1 -358 -81 -393 -41 -19 -65 -20 -443 -17 -386 3 -401 4 -428 24 -60 44 -63 60 -63 376 0 315 5 349 58 385 43 28 96 31 482 30 345 -2 367 -3 399 -22z m675 15 c25 -9 26 -12 26 -94 0 -101 -5 -106 -100 -106 -95 0 -100 6 -100 103 0 51 5 88 12 95 14 14 126 16 162 2z m2486 -45 l0 -55 -330 0 -330 0 0 -355 0 -355 -70 0 -70 0 0 410 0 410 400 0 400 0 0 -55z m710 -305 l0 -360 203 -2 202 -3 3 -47 3 -48 -481 0 -481 0 3 48 3 47 203 3 202 2 0 360 0 360 70 0 70 0 0 -360z m1395 341 c131 -29 231 -108 288 -229 30 -62 32 -75 32 -172 0 -93 -3 -112 -26 -161 -49 -103 -120 -164 -245 -211 -56 -21 -78 -22 -391 -26 l-333 -3 0 411 0 412 313 -5 c171 -3 335 -10 362 -16z m-16210 -1756 c75 -20 134 -58 207 -132 32 -32 314 -422 641 -885 322 -454 588 -831 592 -837 4 -8 -75 -11 -291 -9 l-297 3 -442 625 -442 625 -39 0 -39 0 -425 -627 -425 -628 -307 0 c-170 0 -308 2 -308 5 0 11 1165 1688 1201 1729 53 60 134 113 199 130 72 19 103 19 175 1z m6271 -14 c56 -25 111 -83 143 -150 l26 -56 3 -822 2 -823 -235 0 -235 0 0 560 0 560 -33 0 c-30 0 -95 -55 -643 -547 -640 -574 -665 -594 -757 -595 -96 -2 -194 54 -244 139 -52 90 -53 96 -53 946 l0 787 240 0 240 0 0 -555 0 -555 34 0 c30 0 92 53 641 545 334 300 617 551 629 557 75 41 163 44 242 9z m3149 14 c75 -20 134 -58 207 -132 31 -32 318 -428 642 -885 321 -456 588 -832 591 -838 4 -7 -90 -9 -291 -8 l-297 3 -442 625 -442 625 -39 2 -39 3 -425 -630 -425 -630 -307 0 c-170 0 -308 2 -308 5 0 11 1165 1688 1201 1729 53 60 134 113 199 130 72 19 103 19 175 1z m-7464 -642 c436 -617 445 -628 480 -631 34 -3 37 0 84 70 26 40 144 214 262 386 159 234 213 320 213 342 l0 30 -407 2 -407 3 -153 210 -153 210 521 3 c286 1 751 1 1032 0 l512 -3 -585 -848 c-322 -466 -608 -869 -635 -897 -122 -124 -285 -156 -431 -85 -104 51 -154 114 -771 987 -326 460 -593 839 -593 842 0 3 132 6 294 6 l293 0 444 -627z m9759 -298 l0 -925 -265 0 -265 0 0 925 0 925 265 0 265 0 0 -925z m2364 713 l165 -213 -784 -3 -785 -2 0 -160 0 -160 587 -2 587 -3 143 -182 143 -183 -730 0 -730 0 0 -145 0 -145 618 0 617 -1 81 -107 c45 -59 121 -158 168 -219 l87 -113 -1051 0 -1050 0 0 925 0 925 885 0 884 0 165 -212z m1724 -495 l2 -703 338 0 339 0 167 -217 167 -218 -1023 -3 c-1002 -2 -1023 -2 -1042 17 -11 11 -88 109 -171 218 l-152 198 423 3 424 2 0 705 0 705 263 -2 262 -3 3 -702z"></path><path id="pIvctxK63" d="M10110 11375 c0 -26 26 -83 96 -210 93 -169 97 -175 128 -175 30 0 34 6 124 176 64 123 92 185 92 210 l0 34 -220 0 -220 0 0 -35z"></path><path id="p13MdKptlJ" d="M19710 11285 l0 -305 370 0 370 0 0 305 0 305 -370 0 -370 0 0 -305z"></path><path id="pPljiAI6r" d="M25240 11286 l0 -306 255 0 c232 0 259 2 309 21 64 23 116 77 134 138 16 51 15 233 0 285 -18 58 -83 121 -150 142 -43 14 -101 18 -300 22 l-248 4 0 -306z"></path></g></g><g id="l5IWN2jCjUTfgiAFNCAh59P" fill="rgb(10,100,162)" style="transform: none;"><g style="transform: none;"><path id="pnuM8GmjT" d="M15370 16640 c-173 -4 -364 -12 -425 -18 -60 -6 -211 -16 -335 -22 -264 -13 -1090 -79 -1435 -115 -770 -81 -1519 -198 -2475 -386 -916 -180 -1928 -457 -2765 -758 -760 -272 -1598 -669 -2155 -1021 -404 -254 -675 -460 -1022 -777 -491 -446 -831 -976 -984 -1532 -65 -238 -77 -329 -78 -591 0 -336 35 -548 140 -837 156 -433 361 -762 730 -1173 404 -452 933 -878 1572 -1267 164 -100 342 -207 397 -238 124 -72 801 -413 950 -480 61 -26 127 -56 148 -66 l37 -17 0 29 c0 26 -10 36 -87 85 -927 592 -1644 1307 -1977 1972 -385 768 -392 1500 -21 2243 247 495 698 995 1309 1452 1901 1421 5435 2403 9456 2627 704 39 951 45 1835 45 850 0 1075 -6 1750 -41 3021 -156 5897 -706 8205 -1571 184 -69 414 -159 510 -200 96 -42 203 -86 238 -99 61 -24 142 -32 142 -15 0 30 -736 435 -1145 631 -170 81 -761 337 -995 430 -376 151 -765 289 -1236 438 -626 199 -505 166 -1800 476 -887 213 -1118 261 -1835 386 -504 88 -1680 234 -2339 291 -134 11 -247 22 -250 24 -6 4 -245 21 -705 50 -132 8 -350 22 -485 31 -197 13 -470 17 -1400 19 -635 1 -1297 -1 -1470 -5z"></path><path id="po9ctfItM" d="M27252 12223 c3 -24 32 -47 195 -158 770 -522 1401 -1158 1738 -1755 465 -820 493 -1598 88 -2379 -110 -211 -226 -387 -385 -583 -109 -134 -360 -393 -508 -522 -654 -575 -1560 -1086 -2705 -1526 -285 -109 -862 -304 -1170 -394 -1773 -520 -3795 -834 -6025 -936 -729 -33 -1957 -38 -2620 -11 -2160 90 -3993 318 -5840 728 -1440 319 -2853 765 -3944 1244 -135 60 -190 79 -223 79 -30 0 -43 -4 -41 -12 7 -20 773 -456 1003 -571 615 -306 1061 -499 1697 -736 402 -150 1077 -374 1373 -456 66 -18 208 -58 315 -89 198 -56 821 -218 985 -256 340 -79 1159 -250 1460 -304 391 -71 1401 -224 1852 -281 253 -32 565 -65 758 -80 39 -3 156 -15 260 -25 105 -11 253 -24 330 -30 77 -5 264 -19 415 -30 151 -11 536 -31 855 -45 524 -23 671 -25 1520 -25 914 0 1475 10 1680 29 55 5 201 15 325 21 124 6 299 17 390 25 91 8 287 24 435 35 149 12 338 30 420 41 83 10 301 37 485 59 592 71 817 107 1684 271 883 166 1025 196 1438 304 1906 499 3427 1196 4398 2015 185 156 482 456 619 624 126 155 199 261 288 416 235 409 326 701 354 1134 23 360 -18 632 -152 1011 -68 190 -250 533 -380 717 -127 179 -351 449 -468 567 -557 557 -1158 998 -2006 1471 -236 131 -861 440 -891 440 -3 0 -4 -12 -2 -27z"></path><path id="pdnsRlisU" d="M9360 9954 c-65 -17 -146 -70 -199 -130 -38 -44 -1241 -1776 -1241 -1788 0 -3 161 -6 358 -6 l357 0 425 627 c234 345 429 627 435 627 5 -1 206 -279 446 -619 241 -339 441 -621 446 -626 5 -5 159 -8 352 -7 l343 3 -612 865 c-344 487 -636 890 -668 923 -31 32 -77 71 -102 87 -88 57 -226 74 -340 44z"></path><path id="pCoswoJZl" d="M15625 9957 c-22 -8 -50 -19 -61 -25 -12 -6 -295 -257 -630 -558 l-609 -546 -3 556 -2 556 -270 0 -270 0 0 -817 c0 -883 0 -886 53 -976 55 -93 148 -142 272 -141 125 0 116 -6 790 598 l610 548 3 -561 2 -561 265 0 265 0 -2 853 -3 852 -26 56 c-32 68 -87 125 -147 151 -57 25 -182 33 -237 15z"></path><path id="p18kY0xgyk" d="M18780 9954 c-65 -17 -146 -70 -199 -130 -38 -44 -1241 -1776 -1241 -1788 0 -3 161 -6 358 -6 l357 0 425 630 c234 346 429 628 434 626 6 -1 206 -280 446 -620 240 -339 441 -621 447 -627 6 -6 140 -8 352 -7 l343 3 -612 865 c-340 481 -637 891 -668 923 -31 32 -77 71 -102 87 -88 57 -226 74 -340 44z"></path><path id="pYRgzrD1H" d="M10422 9922 c7 -10 285 -403 618 -873 631 -891 679 -953 784 -1004 162 -79 364 -44 491 85 27 28 322 445 655 927 l607 878 -1100 3 c-605 1 -1102 0 -1104 -2 -3 -2 74 -111 169 -243 l174 -238 407 -3 407 -2 -91 -133 c-50 -72 -168 -245 -262 -384 -94 -139 -174 -250 -178 -247 -4 2 -207 286 -450 629 l-442 625 -349 0 c-336 0 -349 -1 -336 -18z"></path><path id="pf4bzDiQi" d="M20720 8985 l0 -955 295 0 295 0 0 955 0 955 -295 0 -295 0 0 -955z"></path><path id="pmdAUSEVU" d="M21680 8985 l0 -955 1101 0 c605 0 1099 4 1097 8 -1 5 -86 117 -188 250 l-185 241 -617 1 -618 0 0 115 0 115 751 2 752 3 -165 210 -164 210 -587 3 -587 2 0 130 0 130 808 2 808 3 -188 243 -189 242 -914 0 -915 0 0 -955z"></path><path id="p1Em3ygYs2" d="M24810 9235 l0 -705 -445 0 c-245 0 -445 -2 -445 -5 0 -7 326 -432 358 -467 l26 -28 1074 0 c712 0 1073 3 1070 10 -2 6 -86 118 -187 250 l-184 240 -339 0 -338 0 -2 703 -3 702 -292 3 -293 2 0 -705z"></path></g></g><g id="l2mcjhWGBGELSE9jIATiDwQ" fill="rgb(83,166,62)" style="transform: none;"><g style="transform: none;"><path id="p1Ai5B36My" d="M17405 15824 c-1896 -55 -3465 -221 -5000 -528 -2805 -563 -4928 -1475 -6109 -2626 -420 -410 -680 -780 -850 -1212 -209 -531 -220 -1123 -33 -1673 162 -476 425 -880 883 -1354 311 -323 785 -705 1206 -971 62 -40 124 -83 138 -95 29 -28 361 -222 634 -372 370 -203 1111 -553 1146 -541 6 2 -119 93 -277 203 -512 355 -846 639 -1127 960 -241 274 -339 404 -471 625 -299 501 -427 914 -428 1380 -1 380 80 701 274 1095 164 334 353 596 638 887 389 397 826 732 1346 1031 589 338 1035 554 1610 779 950 371 2041 682 3235 922 1030 207 2437 393 3410 451 140 8 311 20 380 25 128 11 569 31 1180 52 598 22 1553 12 2265 -22 110 -5 317 -14 460 -19 143 -6 319 -17 390 -25 72 -8 198 -17 280 -21 83 -3 204 -12 270 -20 66 -8 185 -19 265 -25 195 -15 1019 -103 1306 -140 376 -48 1508 -233 1903 -311 272 -54 433 -91 1141 -263 857 -208 1539 -407 2205 -643 422 -149 607 -220 830 -318 83 -36 161 -65 175 -65 l25 0 -30 25 c-47 37 -289 181 -520 307 -269 148 -1104 554 -1177 573 -30 8 -149 54 -264 103 -452 194 -1216 464 -1824 646 -1792 536 -3767 895 -5890 1071 -512 42 -929 67 -1585 96 -228 9 -1776 20 -2010 13z"></path><path id="pxeI6wDeu" d="M25500 13165 c7 -8 49 -37 94 -64 321 -195 898 -676 1184 -989 536 -585 817 -1085 937 -1670 119 -575 -1 -1187 -341 -1740 -126 -205 -196 -295 -477 -622 -179 -208 -618 -576 -922 -772 -146 -95 -561 -344 -702 -422 -486 -268 -1301 -617 -1948 -834 -641 -216 -1784 -514 -2531 -661 -892 -176 -2435 -376 -3214 -416 -63 -3 -191 -13 -285 -21 -185 -16 -746 -40 -1305 -55 -538 -14 -1793 -2 -2171 21 -168 11 -431 24 -585 30 -153 6 -312 15 -353 20 -41 6 -163 15 -270 20 -297 15 -990 82 -1456 141 -285 35 -1105 149 -1300 179 -414 65 -1185 215 -1835 357 -390 85 -749 183 -1550 423 -959 287 -1310 408 -1870 640 -302 125 -470 190 -470 182 0 -17 474 -302 750 -452 334 -180 940 -480 971 -480 9 0 96 -35 195 -79 652 -286 1504 -590 2324 -830 2110 -616 4472 -994 7005 -1121 967 -48 2199 -52 3135 -10 2055 94 3959 372 5620 821 830 225 1673 524 2340 829 141 65 525 255 638 317 271 147 632 372 852 531 460 332 863 725 1114 1085 446 641 601 1284 470 1959 -69 356 -214 693 -461 1072 -328 503 -925 1077 -1598 1537 -104 71 -208 143 -230 159 -289 208 -988 588 -1553 843 -198 89 -224 99 -202 72z"></path></g></g><g id="ls2V4ypQt60gmsFYLxfazE" fill="rgb(0,150,65)" style="transform: none;"><g style="transform: none;"><path id="p19L9Iy0Sc" d="M21540 11945 c0 -3 30 -58 66 -122 36 -63 62 -119 57 -124 -4 -4 -33 -9 -63 -11 l-55 -3 -3 -100 c-2 -85 0 -102 15 -112 23 -17 214 -18 231 -1 8 8 12 50 12 122 l0 110 -81 123 -82 123 -48 0 c-27 0 -49 -2 -49 -5z"></path><path id="pbrmkss3A" d="M8997 11638 c-30 -51 -123 -212 -207 -358 -84 -146 -175 -302 -201 -347 l-49 -83 118 0 117 0 174 310 c95 171 177 310 181 310 4 0 81 -138 170 -306 90 -168 168 -308 175 -310 6 -3 53 -3 103 -2 l91 3 -240 438 -241 437 -68 0 -69 0 -54 -92z"></path><path id="pxRxrZWc4" d="M9750 11723 c0 -5 110 -201 243 -438 l244 -430 103 0 102 0 249 433 c137 239 249 435 249 438 0 2 -51 4 -113 4 l-113 0 -39 -72 c-21 -40 -47 -85 -57 -100 l-19 -28 -274 0 -274 0 -52 100 -53 100 -98 0 c-54 0 -98 -3 -98 -7z m770 -348 c0 -2 -39 -78 -86 -167 -48 -90 -90 -169 -94 -176 -4 -9 -42 51 -103 162 -54 97 -97 178 -97 181 0 3 86 5 190 5 105 0 190 -2 190 -5z"></path><path id="pll3z1GnI" d="M11227 11723 c-4 -3 -7 -201 -7 -440 l0 -433 73 0 74 0 324 271 c178 149 338 284 355 300 l31 30 -5 -301 -5 -300 97 0 96 0 0 440 0 440 -69 0 -69 0 -294 -246 c-161 -136 -322 -273 -358 -304 l-65 -57 3 303 4 304 -90 0 c-49 0 -92 -3 -95 -7z"></path><path id="pcWQUMlJh" d="M13415 11299 c-137 -238 -252 -436 -253 -441 -2 -5 49 -7 113 -6 l117 3 173 308 c95 170 175 310 177 313 3 2 80 -138 173 -311 l167 -315 99 0 c54 0 99 3 99 8 -1 4 -107 200 -238 437 l-237 430 -70 3 -70 3 -250 -432z"></path><path id="prVY97KwU" d="M14530 11290 l0 -440 100 0 100 0 0 440 0 440 -100 0 -100 0 0 -440z"></path><path id="pLpUcSLJl" d="M15180 11290 l0 -440 450 0 450 0 0 75 0 75 -345 0 -345 0 0 95 0 95 200 0 200 0 0 75 0 75 -200 0 -200 0 0 110 0 110 350 0 350 0 0 85 0 85 -455 0 -455 0 0 -440z"></path><path id="paM4k1jSl" d="M16670 11370 l0 -360 -200 0 -200 0 0 -80 0 -80 505 0 505 0 0 80 0 80 -200 0 -200 0 -2 357 -3 358 -102 3 -103 3 0 -361z"></path><path id="p8yDoq5GN" d="M18304 11721 c-53 -9 -89 -33 -111 -74 -16 -29 -18 -65 -18 -357 0 -298 2 -328 19 -363 36 -72 34 -72 463 -72 370 0 382 1 410 21 47 34 63 78 63 176 0 86 0 86 -27 92 -34 7 -155 26 -165 26 -5 0 -8 -36 -8 -80 l0 -80 -275 0 -275 0 0 275 0 275 275 0 275 0 0 -94 0 -93 100 20 100 20 0 96 c0 120 -19 168 -76 197 -36 17 -65 19 -374 21 -184 0 -354 -2 -376 -6z"></path><path id="pE1iNfZKp" d="M19670 11721 c-60 -9 -95 -34 -114 -82 -13 -33 -16 -90 -16 -357 0 -349 2 -361 63 -406 28 -20 42 -21 458 -24 408 -3 432 -2 473 17 81 35 81 37 81 423 0 326 -1 337 -21 365 -12 15 -36 37 -55 48 -32 19 -53 20 -429 22 -217 0 -415 -2 -440 -6z m750 -436 l0 -275 -340 0 -340 0 0 275 0 275 340 0 340 0 0 -275z"></path><path id="p11r8ZguZq" d="M20992 11718 c-8 -8 -12 -50 -12 -125 0 -135 -2 -133 130 -133 132 0 130 -2 130 136 0 114 0 115 -26 124 -37 14 -207 13 -222 -2z"></path><path id="p1GiqNtGLO" d="M22840 11290 l0 -440 100 0 100 0 0 355 0 355 330 0 330 0 0 85 0 85 -430 0 -430 0 0 -440z"></path><path id="ppxXlYKVB" d="M24210 11370 l0 -360 -202 -2 -203 -3 -3 -77 -3 -78 511 0 511 0 -3 78 -3 77 -202 3 -203 2 0 360 0 360 -100 0 -100 0 0 -360z"></path><path id="pZx6N61GT" d="M25070 11290 l0 -441 363 3 c344 4 365 5 421 26 84 31 137 64 180 113 140 154 133 444 -14 603 -47 51 -137 100 -215 117 -28 6 -203 13 -392 16 l-343 5 0 -442z m688 246 c67 -21 132 -84 150 -142 15 -52 16 -175 0 -225 -18 -61 -70 -115 -134 -138 -49 -19 -77 -21 -279 -21 l-225 0 0 276 0 276 218 -4 c169 -4 229 -9 270 -22z"></path></g></g></svg>